<svg width="25" height="24" viewBox="0 0 25 24" fill="none" xmlns="http://www.w3.org/2000/svg">
<g id="calendar-blank-outline">
<path id="Vector" d="M19.5 4H18.5V2H16.5V4H8.5V2H6.5V4H5.5C4.39 4 3.5 4.9 3.5 6V20C3.5 20.5304 3.71071 21.0391 4.08579 21.4142C4.46086 21.7893 4.96957 22 5.5 22H19.5C20.0304 22 20.5391 21.7893 20.9142 21.4142C21.2893 21.0391 21.5 20.5304 21.5 20V6C21.5 5.46957 21.2893 4.96086 20.9142 4.58579C20.5391 4.21071 20.0304 4 19.5 4ZM19.5 20H5.5V10H19.5V20ZM19.5 8H5.5V6H19.5V8Z" fill="#4B4B4B"/>
</g>
</svg>
