<svg width="97" height="97" viewBox="0 0 97 97" fill="none" xmlns="http://www.w3.org/2000/svg">
<path fill-rule="evenodd" clip-rule="evenodd" d="M48.5 96.5C75.0097 96.5 96.5 75.0097 96.5 48.5C96.5 21.9903 75.0097 0.5 48.5 0.5C21.9903 0.5 0.5 21.9903 0.5 48.5C0.5 75.0097 21.9903 96.5 48.5 96.5ZM78.5921 38.1271L42.9421 73.5967C41.7313 74.8011 39.7687 74.8011 38.5579 73.5965L18.4079 53.5485C17.1974 52.344 17.1974 50.3911 18.4079 49.1867L22.7919 44.8249C24.0026 43.6204 25.9655 43.6204 27.1761 44.8249L40.75 58.3301L69.8239 29.4035C71.0347 28.1988 72.9976 28.1988 74.2081 29.4035L78.5921 33.7653C79.8026 34.9697 79.8026 36.9226 78.5921 38.1271Z" fill="#2F4C78"/>
</svg>
