<svg width="20" height="20" viewBox="0 0 20 20" fill="none" xmlns="http://www.w3.org/2000/svg">
<g id="delete-forever-outline">
<path id="Vector" d="M11.7667 8.725L10 10.4917L8.225 8.725L7.05 9.9L8.82501 11.6667L7.05834 13.4333L8.23334 14.6083L10 12.8417L11.7667 14.6083L12.9417 13.4333L11.175 11.6667L12.9417 9.9L11.7667 8.725ZM12.9167 3.33333L12.0833 2.5H7.91667L7.08334 3.33333H4.16667V5H15.8333V3.33333H12.9167ZM5.00001 15.8333C5.00001 16.2754 5.1756 16.6993 5.48816 17.0118C5.80072 17.3244 6.22464 17.5 6.66667 17.5H13.3333C13.7754 17.5 14.1993 17.3244 14.5118 17.0118C14.8244 16.6993 15 16.2754 15 15.8333V5.83333H5.00001V15.8333ZM6.66667 7.5H13.3333V15.8333H6.66667V7.5Z" fill="#1E1E1E"/>
</g>
</svg>
