<svg width="8" height="8" viewBox="0 0 8 8" fill="none" xmlns="http://www.w3.org/2000/svg">
<g id="Logo">
<g id="Union">
<path d="M2.28571 5.5C2.28571 5.77614 2.02988 6 1.71429 6C1.39869 6 1.14286 5.77614 1.14286 5.5C1.14286 5.22386 1.39869 5 1.71429 5C2.02988 5 2.28571 5.22386 2.28571 5.5Z" fill="#DFF5FF"/>
<path d="M6.85714 5.5C6.85714 5.77614 6.60131 6 6.28571 6C5.97012 6 5.71429 5.77614 5.71429 5.5C5.71429 5.22386 5.97012 5 6.28571 5C6.60131 5 6.85714 5.22386 6.85714 5.5Z" fill="#DFF5FF"/>
<path d="M3.42857 5C3.11298 5 2.85714 5.22386 2.85714 5.5C2.85714 5.77614 3.11298 6 3.42857 6H4.57143C4.88702 6 5.14286 5.77614 5.14286 5.5C5.14286 5.22386 4.88702 5 4.57143 5H3.42857Z" fill="#DFF5FF"/>
<path d="M1.71429 1C1.39869 1 1.14286 1.22386 1.14286 1.5V3.4503C1.14286 3.76248 1.46411 3.99586 1.81139 3.9468C2.32878 3.8737 3.30986 3.75 4 3.75C4.69014 3.75 5.67122 3.8737 6.18861 3.9468C6.53589 3.99586 6.85714 3.76248 6.85714 3.4503V1.5C6.85714 1.22386 6.60131 1 6.28571 1H1.71429ZM1.71429 1.5H6.28571V3.4503C6.28555 3.4506 6.28571 3.45116 6.28571 3.4503C6.28572 3.45029 6.28546 3.45124 6.2845 3.45195C6.28354 3.45266 6.28259 3.45304 6.28201 3.45319C6.28173 3.45326 6.28117 3.4534 6.2797 3.45319C5.76429 3.38037 4.74153 3.25 4 3.25C3.25847 3.25 2.23571 3.38037 1.7203 3.45319C1.71883 3.4534 1.71829 3.45326 1.71801 3.45319C1.71743 3.45304 1.71647 3.45266 1.7155 3.45195C1.71454 3.45124 1.71423 3.4507 1.71423 3.45071C1.71423 3.45156 1.7144 3.45101 1.71423 3.45071L1.71429 1.5Z" fill="#DFF5FF"/>
<path d="M0 1.25C0 0.559644 0.639593 0 1.42857 0H6.57143C7.36041 0 8 0.559644 8 1.25V5.75C8 6.15895 7.77556 6.52204 7.42857 6.75009V7.75C7.42857 7.88807 7.30065 8 7.14286 8H6C5.8422 8 5.71429 7.88807 5.71429 7.75V7H2.28571V7.75C2.28571 7.88807 2.1578 8 2 8H0.857143C0.699347 8 0.571429 7.88807 0.571429 7.75V6.75009C0.224444 6.52204 0 6.15895 0 5.75V1.25ZM1.42857 0.5C0.955185 0.5 0.571429 0.835786 0.571429 1.25V5.75C0.571429 6.16421 0.955185 6.5 1.42857 6.5H6.57143C7.04482 6.5 7.42857 6.16421 7.42857 5.75V1.25C7.42857 0.835786 7.04482 0.5 6.57143 0.5H1.42857Z" fill="#DFF5FF"/>
</g>
</g>
</svg>
