<svg width="21" height="20" viewBox="0 0 21 20" fill="none" xmlns="http://www.w3.org/2000/svg">
<g id="ticket">
<path id="Vector" d="M13.1502 14.0002L10.1668 12.0835L7.1835 14.0002L8.0835 10.5668L5.34183 8.3335L8.8835 8.11683L10.1668 4.8335L11.4502 8.11683L14.9918 8.3335L12.2502 10.5668L13.1502 14.0002ZM16.8335 10.0002C16.8335 9.07516 17.5835 8.3335 18.5002 8.3335V5.00016C18.5002 4.07516 17.7502 3.3335 16.8335 3.3335H3.50016C3.05814 3.3335 2.63421 3.50909 2.32165 3.82165C2.00909 4.13421 1.8335 4.55814 1.8335 5.00016V8.3335C2.7585 8.3335 3.50016 9.0835 3.50016 10.0002C3.50016 10.4422 3.32457 10.8661 3.01201 11.1787C2.69945 11.4912 2.27552 11.6668 1.8335 11.6668V15.0002C1.8335 15.4422 2.00909 15.8661 2.32165 16.1787C2.63421 16.4912 3.05814 16.6668 3.50016 16.6668H16.8335C17.2755 16.6668 17.6994 16.4912 18.012 16.1787C18.3246 15.8661 18.5002 15.4422 18.5002 15.0002V11.6668C18.0581 11.6668 17.6342 11.4912 17.3217 11.1787C17.0091 10.8661 16.8335 10.4422 16.8335 10.0002Z" fill="#1E1E1E"/>
</g>
</svg>
